<svg width="150" height="150" viewBox="0 0 150 150" fill="none" xmlns="http://www.w3.org/2000/svg">
<g clip-path="url(#clip0)">
<rect width="150" height="150" fill="white"/>
<rect x="-48" y="-38" width="250" height="250" rx="125" fill="#F7F5EA"/>
<path d="M42.4478 73.8914V47.4287H100.132V73.8914C100.132 89.7319 87.2173 102.575 71.2882 102.575C55.3591 102.575 42.4478 89.7319 42.4478 73.8914Z" fill="#213543"/>
<path d="M71.2916 106C53.4843 106 39 91.5964 39 73.8914V44H103.58V73.8914C103.58 91.5964 89.0956 106 71.2916 106ZM45.8957 50.8573V73.8914C45.8957 87.815 57.2867 99.1459 71.2916 99.1459C85.2931 99.1459 96.6875 87.8183 96.6875 73.8914V50.8573H45.8957Z" fill="#213543"/>
<path d="M104.946 71.9518V65.0944C108.893 65.0944 112.104 61.9009 112.104 57.9759C112.104 54.0509 108.893 50.8573 104.946 50.8573V44C112.695 44 119 50.2696 119 57.9759C119 65.6822 112.695 71.9518 104.946 71.9518Z" fill="#213543"/>
<path d="M104.942 65.0942H101.99V71.9516H104.942V65.0942Z" fill="#213543"/>
<path d="M104.942 44H101.99V50.8573H104.942V44Z" fill="#213543"/>
<path d="M73.6295 89.9053H70.2703V77.5132H73.6262V89.9053H73.6295Z" fill="white"/>
<path d="M75.9314 77.5132V89.9053H79.5204V80.8014H88.5472V77.5132H79.5204" fill="white"/>
<path d="M92.6681 75.6941C93.807 75.6941 94.7302 74.776 94.7302 73.6434C94.7302 72.5109 93.807 71.5928 92.6681 71.5928C91.5292 71.5928 90.606 72.5109 90.606 73.6434C90.606 74.776 91.5292 75.6941 92.6681 75.6941Z" fill="white"/>
<path d="M71.9515 75.6941C73.0904 75.6941 74.0137 74.776 74.0137 73.6434C74.0137 72.5109 73.0904 71.5928 71.9515 71.5928C70.8127 71.5928 69.8894 72.5109 69.8894 73.6434C69.8894 74.776 70.8127 75.6941 71.9515 75.6941Z" fill="white"/>
<path d="M88.5472 72.001H76.0725V75.2892H88.5472V72.001Z" fill="white"/>
<path d="M55.6416 75.077V71.7397H68.1031V75.077H55.6416Z" fill="white"/>
<path d="M68.1031 77.3662H55.6416V80.9353H64.7997V89.9119H68.1031V80.9353" fill="white"/>
<path d="M71.9943 96.0603C73.1332 96.0603 74.0564 95.1422 74.0564 94.0096C74.0564 92.8771 73.1332 91.959 71.9943 91.959C70.8554 91.959 69.9321 92.8771 69.9321 94.0096C69.9321 95.1422 70.8554 96.0603 71.9943 96.0603Z" fill="white"/>
<path d="M73.6482 89.9101V77.5049H70.3415V89.9101H73.6482Z" fill="white"/>
<path d="M70.116 57.3818H73.4719V69.774H70.116V57.3818Z" fill="white"/>
<path d="M67.8141 69.774V57.3818H64.225V66.489H55.1982V69.774H64.225" fill="white"/>
<path d="M51.0773 75.6941C52.2162 75.6941 53.1394 74.776 53.1394 73.6434C53.1394 72.5109 52.2162 71.5928 51.0773 71.5928C49.9384 71.5928 49.0151 72.5109 49.0151 73.6434C49.0151 74.776 49.9384 75.6941 51.0773 75.6941Z" fill="white"/>
<path d="M75.6423 69.9206H88.1038V66.3548H78.9457V57.375H75.6423V66.3548" fill="white"/>
<path d="M71.7511 55.3279C72.89 55.3279 73.8133 54.4098 73.8133 53.2772C73.8133 52.1447 72.89 51.2266 71.7511 51.2266C70.6122 51.2266 69.689 52.1447 69.689 53.2772C69.689 54.4098 70.6122 55.3279 71.7511 55.3279Z" fill="white"/>
<path d="M70.0994 57.3775V69.7827H73.406V57.3775H70.0994Z" fill="white"/>
</g>
<defs>
<clipPath id="clip0">
<rect width="150" height="150" fill="white"/>
</clipPath>
</defs>
</svg>
