<svg width="150" height="150" viewBox="0 0 150 150" fill="none" xmlns="http://www.w3.org/2000/svg">
<g clip-path="url(#clip0)">
<rect width="150" height="150" fill="white"/>
<rect x="-48" y="-38" width="250" height="250" rx="125" fill="#F7F5EA"/>
<path d="M45.4478 73.8914V47.4287H103.132V73.8914C103.132 89.7319 90.2173 102.575 74.2882 102.575C58.3591 102.575 45.4478 89.7319 45.4478 73.8914Z" fill="#213543"/>
<path d="M74.2916 106C56.4843 106 42 91.5964 42 73.8914V44H106.58V73.8914C106.58 91.5964 92.0956 106 74.2916 106ZM48.8957 50.8573V73.8914C48.8957 87.815 60.2867 99.1459 74.2916 99.1459C88.2931 99.1459 99.6875 87.8183 99.6875 73.8914V50.8573H48.8957Z" fill="#213543"/>
<path d="M107.946 71.9518V65.0944C111.893 65.0944 115.104 61.9009 115.104 57.9759C115.104 54.0509 111.893 50.8573 107.946 50.8573V44C115.695 44 122 50.2696 122 57.9759C122 65.6822 115.695 71.9518 107.946 71.9518Z" fill="#213543"/>
<path d="M107.942 65.0942H104.99V71.9516H107.942V65.0942Z" fill="#213543"/>
<path d="M107.942 44H104.99V50.8573H107.942V44Z" fill="#213543"/>
<path d="M76.6295 89.9053H73.2703V77.5132H76.6262V89.9053H76.6295Z" fill="white"/>
<path d="M78.9314 77.5132V89.9053H82.5204V80.8014H91.5472V77.5132H82.5204" fill="white"/>
<path d="M95.6681 75.6941C96.807 75.6941 97.7302 74.776 97.7302 73.6434C97.7302 72.5109 96.807 71.5928 95.6681 71.5928C94.5292 71.5928 93.606 72.5109 93.606 73.6434C93.606 74.776 94.5292 75.6941 95.6681 75.6941Z" fill="white"/>
<path d="M74.9515 75.6941C76.0904 75.6941 77.0137 74.776 77.0137 73.6434C77.0137 72.5109 76.0904 71.5928 74.9515 71.5928C73.8127 71.5928 72.8894 72.5109 72.8894 73.6434C72.8894 74.776 73.8127 75.6941 74.9515 75.6941Z" fill="white"/>
<path d="M91.5472 72.001H79.0725V75.2892H91.5472V72.001Z" fill="white"/>
<path d="M58.6416 75.077V71.7397H71.1031V75.077H58.6416Z" fill="white"/>
<path d="M71.1031 77.3662H58.6416V80.9353H67.7997V89.9119H71.1031V80.9353" fill="white"/>
<path d="M74.9943 96.0603C76.1332 96.0603 77.0564 95.1422 77.0564 94.0096C77.0564 92.8771 76.1332 91.959 74.9943 91.959C73.8554 91.959 72.9321 92.8771 72.9321 94.0096C72.9321 95.1422 73.8554 96.0603 74.9943 96.0603Z" fill="white"/>
<path d="M76.6482 89.9101V77.5049H73.3415V89.9101H76.6482Z" fill="white"/>
<path d="M73.116 57.3818H76.4719V69.774H73.116V57.3818Z" fill="white"/>
<path d="M70.8141 69.774V57.3818H67.225V66.489H58.1982V69.774H67.225" fill="white"/>
<path d="M54.0773 75.6941C55.2162 75.6941 56.1394 74.776 56.1394 73.6434C56.1394 72.5109 55.2162 71.5928 54.0773 71.5928C52.9384 71.5928 52.0151 72.5109 52.0151 73.6434C52.0151 74.776 52.9384 75.6941 54.0773 75.6941Z" fill="white"/>
<path d="M78.6423 69.9206H91.1038V66.3548H81.9457V57.375H78.6423V66.3548" fill="white"/>
<path d="M74.7511 55.3279C75.89 55.3279 76.8133 54.4098 76.8133 53.2772C76.8133 52.1447 75.89 51.2266 74.7511 51.2266C73.6122 51.2266 72.689 52.1447 72.689 53.2772C72.689 54.4098 73.6122 55.3279 74.7511 55.3279Z" fill="white"/>
<path d="M73.0994 57.3775V69.7827H76.406V57.3775H73.0994Z" fill="white"/>
</g>
<defs>
<clipPath id="clip0">
<rect width="150" height="150" fill="white"/>
</clipPath>
</defs>
</svg>
