<svg width="141" height="46" viewBox="0 0 141 46" fill="none" xmlns="http://www.w3.org/2000/svg">
<path fill-rule="evenodd" clip-rule="evenodd" d="M1.17387 17.3214H4.6962C5.02223 17.3214 5.28349 17.6349 5.28349 17.949V45.1033C5.28349 45.4167 5.02223 45.6679 4.6962 45.6679H1.17387C0.847835 45.6679 0.521088 45.4167 0.521088 45.1033V17.949C0.521088 17.6349 0.847835 17.3214 1.17387 17.3214ZM0 3.83873C0 2.33305 1.30414 1.14151 2.86954 1.14151C4.43565 1.14151 5.7398 2.33305 5.7398 3.83873C5.7398 5.40601 4.43565 6.59823 2.86954 6.59823C1.30414 6.59823 0 5.40601 0 3.83873Z" fill="#FBDC5E"/>
<path fill-rule="evenodd" clip-rule="evenodd" d="M28.5374 11.5033C28.162 11.5654 27.9115 11.5033 27.7245 11.1912L27.0986 9.94176C26.9115 9.56687 27.0986 9.19198 27.5361 9.06725C28.7244 8.69236 29.2254 8.25544 29.2254 7.13146C29.2254 5.38312 26.9736 4.00831 24.4099 4.00831C20.4694 4.00831 18.2797 6.5071 18.2797 11.0037V16.8751H33.6035C33.9782 16.8751 34.2287 17.1246 34.2287 17.4368V44.4812C34.2287 44.7927 33.9782 45.0435 33.6035 45.0435H30.2261C29.9135 45.0435 29.663 44.7927 29.663 44.4812V20.4972H18.2797V44.4812C18.2797 44.7927 17.9671 45.0435 17.6545 45.0435H14.2765C13.9639 45.0435 13.714 44.7927 13.714 44.4812V20.4972H10.0869C9.77355 20.4972 9.46094 20.185 9.46094 19.8729V17.4368C9.46094 17.1246 9.77355 16.8751 10.0869 16.8751H13.714V13.1896C13.714 7.06875 14.8403 0.448242 24.3464 0.448242C29.9756 0.448242 33.0403 3.1338 33.0403 7.13146C33.0403 9.25469 31.5394 11.1912 28.5374 11.5033Z" fill="#FBDC5E"/>
<path fill-rule="evenodd" clip-rule="evenodd" d="M46.0118 21.258C47.975 17.5973 51.7734 15.9836 56.0154 15.9836C59.4352 15.9836 62.2842 16.7901 64.3102 18.5284C66.5262 20.4515 67.7292 23.5542 67.7292 27.8974V43.9682C67.7292 44.2777 67.4134 44.5262 67.0963 44.5262H63.7408C63.4243 44.5262 63.1071 44.2777 63.1071 43.9682V28.8901C63.1071 25.7874 62.4742 23.3057 60.7647 21.7543C59.4981 20.5761 57.7256 19.9551 55.1289 19.9551C51.837 19.9551 49.2409 21.3826 47.6578 24.2361C46.4548 26.4707 46.0118 29.138 46.0118 31.6197V43.9682C46.0118 44.2777 45.7582 44.5262 45.4418 44.5262H41.9598C41.6426 44.5262 41.3262 44.2777 41.3262 43.9682V17.1009C41.3262 16.7901 41.6426 16.48 41.9598 16.48H45.1889C45.5053 16.48 45.8218 16.7901 45.8218 17.1009V21.258H46.0118Z" fill="#FBDC5E"/>
<path fill-rule="evenodd" clip-rule="evenodd" d="M92.5141 28.1098C92.0658 28.1098 91.8727 28.1098 91.6811 27.7941L90.9118 26.4045C90.7201 26.0889 90.8481 25.7725 91.3608 25.5836C93.0904 25.3307 93.5401 24.6366 93.5401 23.6254C93.5401 22.4889 92.8344 21.6045 91.8091 21.0366C90.4635 20.215 88.5402 19.8993 86.8106 19.8993C83.4781 19.8993 80.4658 21.2254 78.4796 23.5627C76.8773 25.3941 75.9163 27.8568 75.9163 30.8254C75.9163 34.1097 77.0053 36.8261 78.9279 38.7836C80.9148 40.7411 83.7991 41.815 87.3233 41.815C89.9508 41.815 92.5777 41.3097 94.7577 39.9202C95.206 39.6679 95.5256 39.7941 95.6543 40.047L96.9363 42.447C97.1279 42.762 97.0006 43.015 96.6796 43.2679C94.308 44.7829 90.5915 45.6679 87.1953 45.6679C82.1968 45.6679 78.0313 44.1522 75.2114 41.3731C72.6481 38.847 71.1738 35.1836 71.1738 30.8254C71.1738 27.0359 72.3915 23.815 74.442 21.4157C77.3899 17.8784 81.8758 15.9836 86.8106 15.9836C89.4382 15.9836 92.5141 16.6784 94.6926 18.1307C96.4236 19.2673 97.5769 20.9725 97.5769 23.2464C97.5769 26.0254 95.6543 27.7307 92.5141 28.1098Z" fill="#FBDC5E"/>
<path fill-rule="evenodd" clip-rule="evenodd" d="M123.96 38.4346V31.9439C123.96 27.8643 123.02 25.02 121.518 23.2895C119.765 21.188 117.198 20.5073 114.693 20.5073C111.187 20.5073 108.619 21.9295 106.992 24.1544C105.551 26.0711 104.8 28.5437 104.8 31.2018C104.8 34.5399 105.739 37.26 107.493 39.1146C109.183 40.9699 111.5 41.9583 114.756 41.9583C118.7 41.9583 121.33 40.7223 123.96 38.4346ZM124.336 42.0824C121.643 44.4308 118.512 45.6681 114.13 45.6681C110.248 45.6681 106.616 44.4929 104.112 41.8348C101.669 39.2381 100.292 35.591 100.292 31.079C100.292 27.2457 101.482 23.722 103.673 21.188C106.178 18.2817 109.872 16.6126 114.693 16.6126C118.7 16.6126 122.645 17.7878 125.212 20.817C127.341 23.3509 128.53 26.7511 128.53 31.8204V44.4929C128.53 44.8019 128.217 45.0495 127.905 45.0495H125.149C124.774 45.0495 124.523 44.8019 124.523 44.4929V42.0824H124.336Z" fill="#FBDC5E"/>
<path d="M129.104 1.552C129.064 1.552 129.032 1.592 129.032 1.632V2.04C129.032 2.088 129.064 2.12 129.104 2.12H130.936V6.928C130.936 6.968 130.968 7 131.016 7H131.496C131.544 7 131.576 6.968 131.576 6.928V2.12H133.408C133.448 2.12 133.48 2.088 133.48 2.04V1.632C133.48 1.592 133.448 1.552 133.408 1.552H129.104ZM139.572 1.632C139.572 1.592 139.54 1.552 139.5 1.552H138.996C138.932 1.552 138.9 1.56 138.852 1.632L136.836 4.96L134.828 1.632C134.788 1.56 134.756 1.552 134.692 1.552H134.188C134.148 1.552 134.116 1.592 134.116 1.632V6.928C134.116 6.968 134.148 7 134.188 7H134.66C134.7 7 134.732 6.968 134.732 6.928V2.664L136.548 5.616C136.588 5.68 136.612 5.696 136.676 5.696H137.028C137.084 5.696 137.116 5.68 137.156 5.616L138.956 2.664V6.928C138.956 6.968 138.988 7 139.028 7H139.5C139.54 7 139.572 6.968 139.572 6.928V1.632Z" fill="#FBDC5E"/>
</svg>
