<?xml version="1.0" encoding="UTF-8"?>
<svg width="90px" height="32px" viewBox="0 0 90 32" version="1.1" xmlns="http://www.w3.org/2000/svg" xmlns:xlink="http://www.w3.org/1999/xlink">
    <!-- Generator: Sketch 52.1 (67048) - http://www.bohemiancoding.com/sketch -->
    <title>logo</title>
    <desc>Created with Sketch.</desc>
    <g id="Page-1" stroke="none" stroke-width="1" fill="none" fill-rule="evenodd">
        <g id="wireframes-v5-copy-5" transform="translate(-76.000000, -55.000000)">
            <g id="logo" transform="translate(76.000000, 55.000000)">
                <path d="M0.821709839,12.1373891 L3.28733766,12.1373891 C3.51556271,12.1373891 3.69844174,12.3570298 3.69844174,12.57715 L3.69844174,31.6043591 C3.69844174,31.8239998 3.51556271,32 3.28733766,32 L0.821709839,32 C0.593484789,32 0.364761432,31.8239998 0.364761432,31.6043591 L0.364761432,12.57715 C0.364761432,12.3570298 0.593484789,12.1373891 0.821709839,12.1373891 M0,2.68996449 C0,1.63492215 0.912900197,0.8 2.00867942,0.8 C3.10495695,0.8 4.01785714,1.63492215 4.01785714,2.68996449 C4.01785714,3.78816766 3.10495695,4.62356938 2.00867942,4.62356938 C0.912900197,4.62356938 0,3.78816766 0,2.68996449" id="Fill-1" fill="#FFFFFF"></path>
                <g id="Group-5" transform="translate(6.428571, 0.000000)">
                    <polygon id="Clip-4" points="0.194082046 0.314268657 17.5315048 0.314268657 17.5315048 31.5624597 0.194082046 31.5624597"></polygon>
                    <path d="M13.5476149,8.06060896 C13.2848253,8.10407164 13.109473,8.06060896 12.978556,7.84186269 L12.5404141,6.9664 C12.4094971,6.70371343 12.5404141,6.44102687 12.8466834,6.35362388 C13.6785319,6.09093731 14.0292365,5.78478806 14.0292365,4.99720597 C14.0292365,3.77213134 12.4529768,2.80878806 10.6583629,2.80878806 C7.90002799,2.80878806 6.36724807,4.55971343 6.36724807,7.7105194 L6.36724807,11.8246687 L17.0938407,11.8246687 C17.3561525,11.8246687 17.5315048,11.9994746 17.5315048,12.2182209 L17.5315048,31.1684299 C17.5315048,31.3866985 17.3561525,31.5624597 17.0938407,31.5624597 L14.7296902,31.5624597 C14.5108581,31.5624597 14.3355058,31.3866985 14.3355058,31.1684299 L14.3355058,14.3626985 L6.36724807,14.3626985 L6.36724807,31.1684299 C6.36724807,31.3866985 6.14841602,31.5624597 5.92958398,31.5624597 L3.5649556,31.5624597 C3.34612355,31.5624597 3.17124903,31.3866985 3.17124903,31.1684299 L3.17124903,14.3626985 L0.632223938,14.3626985 C0.412914093,14.3626985 0.194082046,14.1439522 0.194082046,13.925206 L0.194082046,12.2182209 C0.194082046,11.9994746 0.412914093,11.8246687 0.632223938,11.8246687 L3.17124903,11.8246687 L3.17124903,9.2422209 C3.17124903,4.95326567 3.95961776,0.314220896 10.6139276,0.314220896 C14.5543378,0.314220896 16.6996564,2.19601194 16.6996564,4.99720597 C16.6996564,6.48496716 15.6489759,7.84186269 13.5476149,8.06060896" id="Fill-3" fill="#FFFFFF"></path>
                </g>
                <path d="M32.2085351,14.8957605 C33.5827242,12.3306968 36.2416182,11.2 39.211047,11.2 C41.6048739,11.2 43.5991653,11.7651111 45.0173711,12.9831131 C46.5685941,14.3306493 47.4107143,16.5047377 47.4107143,19.5480819 L47.4107143,30.8090247 C47.4107143,31.0258642 47.1896638,31.2 46.9676459,31.2 L44.618803,31.2 C44.3972689,31.2 44.175251,31.0258642 44.175251,30.8090247 L44.175251,20.2436763 C44.175251,18.0695879 43.7321826,16.3306019 42.535511,15.2435577 C41.6488905,14.4179545 40.4082023,13.9828521 38.5904611,13.9828521 C36.2861185,13.9828521 34.468861,14.9830656 33.3607063,16.9825437 C32.5185862,18.5483429 32.2085351,20.4173377 32.2085351,22.1563237 L32.2085351,30.8090247 C32.2085351,31.0258642 32.0310175,31.2 31.8094833,31.2 L29.3721235,31.2 C29.1501056,31.2 28.9285714,31.0258642 28.9285714,30.8090247 L28.9285714,11.9828996 C28.9285714,11.7651111 29.1501056,11.5477972 29.3721235,11.5477972 L31.6324494,11.5477972 C31.8539836,11.5477972 32.0755178,11.7651111 32.0755178,11.9828996 L32.0755178,14.8957605 L32.2085351,14.8957605 Z" id="Fill-6" fill="#FFFFFF"></path>
                <path d="M64.7595941,19.696863 C64.4457815,19.696863 64.3106609,19.696863 64.1765195,19.4756635 L63.6379955,18.5019992 C63.5038541,18.2807997 63.5934449,18.0591172 63.9522977,17.9267838 C65.1629975,17.7495344 65.4777893,17.2631853 65.4777893,16.5546706 C65.4777893,15.7582557 64.9838159,15.1386073 64.2661103,14.7406413 C63.3241829,14.164943 61.977873,13.9437435 60.7671732,13.9437435 C58.4343852,13.9437435 56.3258191,14.8729747 54.9354481,16.5107205 C53.8138495,17.7939675 53.1411841,19.5196136 53.1411841,21.5997585 C53.1411841,23.9011029 53.9034403,25.8044814 55.2492607,27.1761116 C56.6401212,28.5477419 58.6590966,29.3002067 61.126026,29.3002067 C62.9653301,29.3002067 64.8041447,28.9461908 66.3301258,27.9725265 C66.6439384,27.7957601 66.8676707,27.8841433 66.9577511,28.0613927 L67.8551278,29.7430887 C67.9892693,29.9638052 67.900168,30.1410546 67.6754566,30.318304 C66.0153341,31.3798686 63.4137737,32 61.0364352,32 C57.537498,32 54.6216355,30.9379525 52.6477003,28.9906239 C50.8534363,27.2205447 49.8214286,24.6535677 49.8214286,21.5997585 C49.8214286,18.9443983 50.6737652,16.6874869 52.1091763,15.0062739 C54.1727023,12.5276801 57.3127866,11.2 60.7671732,11.2 C62.6064773,11.2 64.7595941,11.6868321 66.2845961,12.7044466 C67.496275,13.5008614 68.3035714,14.6957253 68.3035714,16.289038 C68.3035714,18.2363666 66.9577511,19.4312304 64.7595941,19.696863" id="Fill-8" fill="#FFFFFF"></path>
                <g id="Group-12" transform="translate(69.910714, 11.200000)">
                    <polygon id="Clip-11" points="0.293973214 0.440723636 20.0603954 0.440723636 20.0603954 20.8 0.293973214 20.8"></polygon>
                    <path d="M16.8614158,15.73156 L16.8614158,11.1834509 C16.8614158,8.32486909 16.2037309,6.33185091 15.1519133,5.11930545 C13.9250319,3.64676 12.1279974,3.16977818 10.3744898,3.16977818 C7.92024872,3.16977818 6.12321429,4.16628727 4.9838648,5.72534182 C3.97557398,7.06836 3.44942602,8.80090545 3.44942602,10.6634509 C3.44942602,13.0025055 4.10711097,14.9085418 5.33447066,16.2080691 C6.51782526,17.5080691 8.1393176,18.2006145 10.4184949,18.2006145 C13.1798151,18.2006145 15.0208546,17.3345782 16.8614158,15.73156 Z M17.1244898,18.2875964 C15.2394452,19.93316 13.0482781,20.8001418 9.98035714,20.8001418 C7.26304209,20.8001418 4.72079082,19.9766509 2.96776148,18.1141055 C1.25778061,16.2945782 0.293973214,13.7390145 0.293973214,10.5774145 C0.293973214,7.89137818 1.12672194,5.42232364 2.6606824,3.64676 C4.41419005,1.61025091 6.99996811,0.440723636 10.3744898,0.440723636 C13.1798151,0.440723636 15.9411352,1.26421455 17.7381696,3.38676 C19.2286033,5.16232364 20.0603954,7.54486909 20.0603954,11.0969418 L20.0603954,19.9766509 C20.0603954,20.19316 19.8418048,20.3666509 19.622736,20.3666509 L17.6941645,20.3666509 C17.4310906,20.3666509 17.2555485,20.19316 17.2555485,19.9766509 L17.2555485,18.2875964 L17.1244898,18.2875964 Z" id="Fill-10" fill="#FFFFFF"></path>
                </g>
            </g>
        </g>
    </g>
</svg>