<?xml version="1.0" encoding="UTF-8"?>
<svg width="50px" height="50px" viewBox="0 0 50 50" version="1.1" xmlns="http://www.w3.org/2000/svg" xmlns:xlink="http://www.w3.org/1999/xlink">
    <!-- Generator: Sketch 52.1 (67048) - http://www.bohemiancoding.com/sketch -->
    <title>mark</title>
    <desc>Created with Sketch.</desc>
    <g id="Page-1" stroke="none" stroke-width="1" fill="none" fill-rule="evenodd">
        <g id="wireframes-v5-copy-5" transform="translate(-695.000000, -48.000000)">
            <g id="mark" transform="translate(695.000000, 48.000000)">
                <polygon id="Fill-1" fill="#F48963" points="22.9978873 42.785 26.6295775 42.785 26.6295775 29.3019014 22.9978873 29.3019014"></polygon>
                <polyline id="Fill-2" fill="#F48963" points="29.1203521 29.3017606 29.1203521 42.7848592 33.0027465 42.7848592 33.0027465 32.8778169 42.7703521 32.8778169 42.7703521 29.3017606 33.0027465 29.3017606"></polyline>
                <g id="Group-19" transform="translate(0.000000, 0.185704)">
                    <path d="M49.4596479,24.9071831 C49.4596479,26.1388732 48.4610563,27.1374648 47.2293662,27.1374648 C45.9976761,27.1374648 44.9990845,26.1388732 44.9990845,24.9071831 C44.9990845,23.675493 45.9976761,22.6769014 47.2293662,22.6769014 C48.4610563,22.6769014 49.4596479,23.675493 49.4596479,24.9071831" id="Fill-3" fill="#F48963"></path>
                    <path d="M27.0440845,24.9071831 C27.0440845,26.1388732 26.045493,27.1374648 24.8138028,27.1374648 C23.5821127,27.1374648 22.5835211,26.1388732 22.5835211,24.9071831 C22.5835211,23.675493 23.5821127,22.6769014 24.8138028,22.6769014 C26.045493,22.6769014 27.0440845,23.675493 27.0440845,24.9071831" id="Fill-5" fill="#F48963"></path>
                    <polygon id="Clip-8" points="0 49.2957746 49.4598592 49.2957746 49.4598592 0.518309859 0 0.518309859"></polygon>
                    <polygon id="Fill-7" fill="#F48963" points="29.2725352 26.6950704 42.7704225 26.6950704 42.7704225 23.1190141 29.2725352 23.1190141"></polygon>
                    <polygon id="Fill-9" fill="#F48963" points="7.16901408 26.465493 20.6521127 26.465493 20.6521127 22.8338028 7.16901408 22.8338028"></polygon>
                    <polyline id="Fill-10" fill="#F48963" points="20.6528169 28.9564789 7.16971831 28.9564789 7.16971831 32.8388732 17.0767606 32.8388732 17.0767606 42.6064789 20.6528169 42.6064789 20.6528169 32.8388732"></polyline>
                    <path d="M24.8616197,49.2958451 C23.6299296,49.2958451 22.631338,48.2972535 22.631338,47.0655634 C22.631338,45.8338732 23.6299296,44.8352817 24.8616197,44.8352817 C26.0933099,44.8352817 27.0919014,45.8338732 27.0919014,47.0655634 C27.0919014,48.2972535 26.0933099,49.2958451 24.8616197,49.2958451" id="Fill-11" fill="#F48963"></path>
                    <polygon id="Fill-12" fill="#F48963" points="23.0732394 42.6070423 26.6492958 42.6070423 26.6492958 29.1091549 23.0732394 29.1091549"></polygon>
                    <polygon id="Fill-13" fill="#F48963" points="22.8295775 20.6978873 26.4612676 20.6978873 26.4612676 7.21478873 22.8295775 7.21478873"></polygon>
                    <polyline id="Fill-14" fill="#F48963" points="20.3392254 20.6980282 20.3392254 7.21492958 16.456831 7.21492958 16.456831 17.1219718 6.68922535 17.1219718 6.68922535 20.6980282 16.456831 20.6980282"></polyline>
                    <path d="M-0.00014084507,24.9071831 C-0.00014084507,23.675493 0.998450704,22.6769014 2.23014085,22.6769014 C3.46183099,22.6769014 4.46042254,23.675493 4.46042254,24.9071831 C4.46042254,26.1388732 3.46183099,27.1374648 2.23014085,27.1374648 C0.998450704,27.1374648 -0.00014084507,26.1388732 -0.00014084507,24.9071831" id="Fill-15" fill="#F48963"></path>
                    <polyline id="Fill-16" fill="#F48963" points="28.8071127 20.8575352 42.2902113 20.8575352 42.2902113 16.9758451 32.383169 16.9758451 32.383169 7.20753521 28.8071127 7.20753521 28.8071127 16.9758451"></polyline>
                    <path d="M24.5978873,0.518591549 C25.8295775,0.518591549 26.828169,1.5171831 26.828169,2.74887324 C26.828169,3.98056338 25.8295775,4.9784507 24.5978873,4.9784507 C23.3661972,4.9784507 22.3676056,3.98056338 22.3676056,2.74887324 C22.3676056,1.5171831 23.3661972,0.518591549 24.5978873,0.518591549" id="Fill-17" fill="#F48963"></path>
                    <polygon id="Fill-18" fill="#F48963" points="22.8098592 20.7056338 26.3859155 20.7056338 26.3859155 7.20774648 22.8098592 7.20774648"></polygon>
                </g>
            </g>
        </g>
    </g>
</svg>