<?xml version="1.0" encoding="UTF-8"?>
<svg width="16px" height="17px" viewBox="0 0 16 17" version="1.1" xmlns="http://www.w3.org/2000/svg" xmlns:xlink="http://www.w3.org/1999/xlink">
    <!-- Generator: Sketch 52.1 (67048) - http://www.bohemiancoding.com/sketch -->
    <title>Combined Shape</title>
    <desc>Created with Sketch.</desc>
    <g id="Page-1" stroke="none" stroke-width="1" fill="none" fill-rule="evenodd">
        <g id="wireframes-v5-copy-3" transform="translate(-198.000000, -3521.000000)" fill="#FFFFFF">
            <g id="Social-Copy" transform="translate(67.000000, 3517.000000)">
                <path d="M138.107063,4.62194264 C138.353101,4.62153501 138.627631,4.62194264 138.936045,4.62194264 C141.403355,4.62194264 141.69579,4.63131817 142.670123,4.6781958 C143.571107,4.72181238 144.060103,4.88119632 144.385843,5.01510328 C144.817083,5.19242301 145.124534,5.40439143 145.447772,5.74680194 C145.771202,6.08921245 145.971421,6.4153177 146.139296,6.87186504 C146.265781,7.21631371 146.416522,7.73400579 146.457528,8.68786365 C146.501808,9.71917149 146.511433,10.0289715 146.511433,12.6398516 C146.511433,15.2507318 146.501808,15.5605318 146.457528,16.5918396 C146.41633,17.5456975 146.265781,18.0633895 146.139296,18.4078382 C145.971806,18.8643856 145.771202,19.1894717 145.447772,19.5316784 C145.124342,19.8740889 144.817276,20.0860573 144.385843,20.2633771 C144.060488,20.3978955 143.571107,20.5568718 142.670123,20.6004884 C141.695982,20.647366 141.403355,20.6575568 138.936045,20.6575568 C136.468543,20.6575568 136.176108,20.647366 135.201967,20.6004884 C134.300983,20.5564642 133.811988,20.3970802 133.486055,20.2631733 C133.054815,20.0858535 132.746786,19.8738851 132.423356,19.5314746 C132.099926,19.1890641 131.899707,18.8637741 131.731831,18.4070229 C131.605347,18.0625743 131.454606,17.5448822 131.413599,16.5910243 C131.36932,15.5597165 131.360464,15.2499165 131.360464,12.6374058 C131.360464,10.0248952 131.36932,9.7167257 131.413599,8.68541786 C131.454798,7.73156 131.605347,7.21386792 131.731831,6.86901162 C131.899322,6.41246427 132.099926,6.08635903 132.423356,5.74394852 C132.746786,5.401538 133.054815,5.18956959 133.486055,5.01184223 C133.811795,4.87732382 134.300983,4.71834751 135.201967,4.67452712 C136.054437,4.63376396 136.384797,4.62153501 138.107063,4.61949686 L138.107063,4.62194264 Z M143.86874,6.24635441 C143.256533,6.24635441 142.759836,6.77158768 142.759836,7.41992568 C142.759836,8.06805986 143.256533,8.59390457 143.86874,8.59390457 C144.480947,8.59390457 144.977643,8.06805986 144.977643,7.41992568 C144.977643,6.7717915 144.480947,6.24594678 143.86874,6.24594678 L143.86874,6.24635441 Z M138.936045,7.61803462 C136.315298,7.61803462 134.190478,9.86754938 134.190478,12.6420936 C134.190478,15.4166378 136.315298,17.6651335 138.936045,17.6651335 C141.556792,17.6651335 143.680842,15.4166378 143.680842,12.6420936 C143.680842,9.86754938 141.556599,7.61803462 138.935853,7.61803462 L138.936045,7.61803462 Z M138.936045,9.38104111 C140.637134,9.38104111 142.016332,10.8409735 142.016332,12.6420936 C142.016332,14.4430098 140.637134,15.9031461 138.936045,15.9031461 C137.234764,15.9031461 135.855758,14.4430098 135.855758,12.6420936 C135.855758,10.8409735 137.234764,9.38104111 138.936045,9.38104111 Z" id="Combined-Shape"></path>
            </g>
        </g>
    </g>
</svg>