<?xml version="1.0" encoding="UTF-8"?>
<svg width="19px" height="20px" viewBox="0 0 19 20" version="1.1" xmlns="http://www.w3.org/2000/svg" xmlns:xlink="http://www.w3.org/1999/xlink">
    <!-- Generator: Sketch 52.1 (67048) - http://www.bohemiancoding.com/sketch -->
    <title>Combined Shape</title>
    <desc>Created with Sketch.</desc>
    <g id="Page-1" stroke="none" stroke-width="1" fill="none" fill-rule="evenodd">
        <g id="wireframes-v5-copy-5" transform="translate(-104.000000, -4375.000000)" fill="#FFFFFF">
            <g id="Social-Copy" transform="translate(67.000000, 4375.000000)">
                <path d="M41.250702,6.980124 L41.250702,19.8625026 L37.2300649,19.8625026 L37.2300649,6.980124 L41.250702,6.980124 Z M41.5155113,2.99508458 C41.5155113,4.23203028 40.6423954,5.22179205 39.2404638,5.22179205 L39.2147697,5.22179205 C37.8649488,5.22179205 36.9923147,4.23203028 36.9923147,2.99508458 C36.9923147,1.73197552 37.8915261,0.769916143 39.2669608,0.769916143 C40.6423954,0.769916143 41.4894158,1.73197552 41.5155113,2.99508458 Z M55.7506574,12.4761404 L55.7504968,19.8625026 L51.7300203,19.8625026 L51.7300203,12.9704228 C51.7300203,11.2392802 51.1482107,10.0579958 49.692723,10.0579958 C48.5819371,10.0579958 47.9203154,10.8543539 47.6297317,11.6235226 C47.5234226,11.8991784 47.4973271,12.2832497 47.4973271,12.6682616 L47.4973271,19.8628446 L43.4762082,19.8628446 C43.4762082,19.8628446 43.5292022,8.18928181 43.4762082,6.980466 L47.4973271,6.980466 L47.4973271,8.80514688 C48.0309604,7.92799018 48.9866987,6.67762079 51.1213925,6.67762079 C53.767157,6.67762079 55.7506574,8.5192309 55.7506574,12.4761404 Z" id="Combined-Shape"></path>
            </g>
        </g>
    </g>
</svg>