<svg xmlns="http://www.w3.org/2000/svg" viewBox="0 0 126 30.04"><defs><style>.cls-1{fill:#007560;}.cls-2{fill:#f48863;}.cls-3{font-size:8.77px;fill:#006838;font-family:MyriadPro-Regular, Myriad Pro;}</style></defs><g id="Layer_2" data-name="Layer 2"><g id="Layer_1-2" data-name="Layer 1"><path class="cls-1" d="M38.11,1.86A1.74,1.74,0,1,1,39.84,3.6,1.72,1.72,0,0,1,38.11,1.86Zm.71,8.5H41a.39.39,0,0,1,.36.39V27.87a.36.36,0,0,1-.36.35H38.82a.39.39,0,0,1-.4-.35V10.75A.42.42,0,0,1,38.82,10.36Z"/><path class="cls-1" d="M56.78,7a.42.42,0,0,1-.51-.2L55.87,6a.37.37,0,0,1,.28-.55c.75-.24,1.07-.52,1.07-1.23,0-1.11-1.43-2-3-2-2.49,0-3.87,1.58-3.87,4.43V10.4H60a.36.36,0,0,1,.4.35V27.87a.37.37,0,0,1-.4.35H57.85a.36.36,0,0,1-.36-.35V12.69H50.3V27.87a.39.39,0,0,1-.4.35H47.77a.36.36,0,0,1-.36-.35V12.69H45.12a.42.42,0,0,1-.39-.4V10.75a.38.38,0,0,1,.39-.35h2.29V8.06c0-3.87.72-8.06,6.72-8.06,3.56,0,5.5,1.7,5.5,4.23A2.84,2.84,0,0,1,56.78,7Z"/><path class="cls-1" d="M67.69,13.4A6.65,6.65,0,0,1,73.93,10a7.64,7.64,0,0,1,5.18,1.62c1.39,1.23,2.14,3.2,2.14,6V27.87a.39.39,0,0,1-.4.35H78.76a.39.39,0,0,1-.4-.35V18.26c0-2-.39-3.56-1.46-4.54a4.84,4.84,0,0,0-3.52-1.15,5,5,0,0,0-4.66,2.73,10.21,10.21,0,0,0-1,4.7v7.87a.36.36,0,0,1-.36.35H65.16a.39.39,0,0,1-.4-.35V10.75a.42.42,0,0,1,.4-.39h2a.42.42,0,0,1,.39.39V13.4Z"/><path class="cls-1" d="M97.58,17.63c-.28,0-.4,0-.52-.2l-.47-.87c-.12-.2,0-.39.28-.51,1.06-.16,1.34-.59,1.34-1.23a1.86,1.86,0,0,0-1.07-1.62,6.14,6.14,0,0,0-3.08-.71,6.63,6.63,0,0,0-5.14,2.29,6.82,6.82,0,0,0-1.58,4.55,7,7,0,0,0,1.86,5,7.08,7.08,0,0,0,5.18,1.9A8.35,8.35,0,0,0,99,25c.28-.16.48-.08.56.08l.79,1.5c.11.2,0,.36-.16.52a11.6,11.6,0,0,1-5.85,1.5,10.17,10.17,0,0,1-7.39-2.69,9.09,9.09,0,0,1-2.49-6.6,9,9,0,0,1,2-5.89A9.72,9.72,0,0,1,94.06,10a9.17,9.17,0,0,1,4.86,1.34,3.75,3.75,0,0,1,1.78,3.21C100.7,16.33,99.52,17.39,97.58,17.63Z"/><path class="cls-1" d="M117.8,26.33a9.11,9.11,0,0,1-6.44,2.29A8.44,8.44,0,0,1,105,26.17a9.83,9.83,0,0,1-2.41-6.88A9.71,9.71,0,0,1,104.75,13a8.75,8.75,0,0,1,7-2.93,8.4,8.4,0,0,1,6.64,2.69c1.35,1.62,2.1,3.79,2.1,7v8.11a.39.39,0,0,1-.4.35h-1.74a.36.36,0,0,1-.39-.35V26.33ZM117.56,24V19.84c0-2.61-.59-4.42-1.54-5.53a5.38,5.38,0,0,0-4.31-1.78,5.72,5.72,0,0,0-4.86,2.33,7.54,7.54,0,0,0-1.38,4.51,7.24,7.24,0,0,0,1.7,5.06,5.78,5.78,0,0,0,4.58,1.82A8.06,8.06,0,0,0,117.56,24Z"/><path class="cls-2" d="M16.31,25.94H14.09V17.68h2.22Z"/><polyline class="cls-2" points="17.84 17.68 17.84 25.93 20.22 25.93 20.22 19.87 26.2 19.87 26.2 17.68 20.22 17.68"/><circle class="cls-2" cx="28.93" cy="15.1" r="1.37"/><circle class="cls-2" cx="15.2" cy="15.1" r="1.37"/><rect class="cls-2" x="17.93" y="14" width="8.27" height="2.19"/><path class="cls-2" d="M4.39,16.05V13.83h8.26v2.22Z"/><polyline class="cls-2" points="12.65 17.58 4.39 17.58 4.39 19.96 10.46 19.96 10.46 25.94 12.65 25.94 12.65 19.96"/><circle class="cls-2" cx="15.23" cy="28.67" r="1.37"/><rect class="cls-2" x="11.1" y="20.71" width="8.27" height="2.19" transform="translate(37.03 6.58) rotate(90)"/><path class="cls-2" d="M14,4.26h2.23v8.26H14Z"/><polyline class="cls-2" points="12.46 12.52 12.46 4.26 10.08 4.26 10.08 10.33 4.1 10.33 4.1 12.52 10.08 12.52"/><circle class="cls-2" cx="1.37" cy="15.1" r="1.37"/><polyline class="cls-2" points="17.65 12.62 25.91 12.62 25.91 10.24 19.84 10.24 19.84 4.26 17.65 4.26 17.65 10.24"/><circle class="cls-2" cx="15.07" cy="1.52" r="1.37"/><rect class="cls-2" x="10.93" y="7.29" width="8.27" height="2.19" transform="translate(6.68 23.46) rotate(-90)"/><text class="cls-3" transform="translate(114.89 11.57)">®</text></g></g></svg>